<svg width="200" height="200" viewBox="0 0 200 200" fill="none" xmlns="http://www.w3.org/2000/svg">
<path d="M91.6666 58.3334H108.333V116.667H91.6666V58.3334ZM91.6666 125H108.333V141.667H91.6666V125Z" fill="#FFB200"/>
<path d="M180.892 60.775L139.225 19.1083C138.452 18.3329 137.534 17.718 136.523 17.299C135.512 16.88 134.428 16.665 133.333 16.6666H66.6666C65.5721 16.665 64.4881 16.88 63.4769 17.299C62.4658 17.718 61.5475 18.3329 60.775 19.1083L19.1083 60.775C18.3329 61.5475 17.718 62.4658 17.299 63.4769C16.88 64.4881 16.665 65.5721 16.6666 66.6666V133.333C16.6666 135.55 17.5416 137.667 19.1083 139.225L60.775 180.892C61.5475 181.667 62.4658 182.282 63.4769 182.701C64.4881 183.12 65.5721 183.335 66.6666 183.333H133.333C135.55 183.333 137.667 182.458 139.225 180.892L180.892 139.225C181.667 138.452 182.282 137.534 182.701 136.523C183.12 135.512 183.335 134.428 183.333 133.333V66.6666C183.335 65.5721 183.12 64.4881 182.701 63.4769C182.282 62.4658 181.667 61.5475 180.892 60.775V60.775ZM166.667 129.883L129.883 166.667H70.1166L33.3333 129.883V70.1166L70.1166 33.3333H129.883L166.667 70.1166V129.883V129.883Z" fill="#FFB200"/>
</svg>
